# xmcd
#
# Track frame offsets: 
#        150
#        19895
#        28500
#        48989
#        63209
#        78553
#        86878
#        124558
#        138406
#
# Disc length: 2059 seconds
#
# Revision: 0
# Processed by: cddbd v1.5.2PL0 Copyright (c) Steve Scherf et al.
# Submitted via: ExactAudioCopy v0.99pb5
#
DISCID=70080909
DTITLE=Bring out the sun - Lamb
DYEAR=2009
DGENRE=Country
TTITLE0=Old fashioned remedy
TTITLE1=The wish
TTITLE2=Rap with rhyme
TTITLE3=River boulevard
TTITLE4=How am i gonna manage?
TTITLE5=Visions of blackbirds
TTITLE6=Salty
TTITLE7=The vine
TTITLE8=Live to your heart
EXTD=
EXTT0=
EXTT1=
EXTT2=
EXTT3=
EXTT4=
EXTT5=
EXTT6=
EXTT7=
EXTT8=
PLAYORDER=
